# xmcd CD database file
# Generated: Sun Aug 3 13:27:00 2003 by KSCD
# 
# Track frame offsets:
#       180
#       10497
#       20295
#       34555
#       47026
#       59345
#       68496
#       82464
#       96514
#       108912
#       129540
#       142773
#       155830
#       164715
#       176159
#
# Disc length: 2471 seconds
#
# Revision: 1
# Processed by: cddbd v1.4PL0 Copyright (c) Steve Scherf et al.
# Submitted via: Kscd 1.3.3
#
DISCID=d009a50f
DTITLE=Ray Condo and the Ricochets - Swing Brother Swing
DYEAR=1900
DGENRE=
TTITLE0=Love Come Back To Me
TTITLE1=Hadacilan Boogie
TTITLE2='Taint No Use
TTITLE3=Swing! Brother Swing!
TTITLE4=Texas Blues
TTITLE5=Rock'in Record Hop
TTITLE6=Young Love
TTITLE7=Teardrops From My Eyes
TTITLE8=Loud Mouth
TTITLE9=It Ain't Right
TTITLE10=Late Night With the Blues
TTITLE11=Train of Love
TTITLE12=Strathcona
TTITLE13=Well, Oh Well
TTITLE14=Boo Hoo
EXTD=
EXTT0=
EXTT1=
EXTT2=
EXTT3=
EXTT4=
EXTT5=
EXTT6=
EXTT7=
EXTT8=
EXTT9=
EXTT10=
EXTT11=
EXTT12=
EXTT13=
EXTT14=
PLAYORDER=
